<svg xmlns="http://www.w3.org/2000/svg" version="1.1" xmlns:xlink="http://www.w3.org/1999/xlink" xmlns:svgjs="http://svgjs.dev/svgjs" width="100%" height="100%" viewBox="0 0 1000 600"><rect width="1000" height="600" x="0" y="0" fill="#4b075b"/><g><circle r="166.66666666666666" cx="391.3297983805338" cy="413.5519885938936" fill="#fcedda" transform="matrix(0.5563887060873786,0,0,0.5563887060873786,0,69.9043482297467)"/><path d="M395.4964700565085 391.39417135594636L387.9633575583084 391.39417135594636Q387.77020082758537 379.66679841918807 385.56269533360734 371.94052919026495Q383.38278365830405 364.18666614266715 377.9192075607084 360.2959377095309Q372.4556314631128 356.4328030950693 362.1355432787655 356.6259598257924L362.1355432787655 356.6259598257924L345.2481262498336 356.6259598257924L345.05496951911056 464.90410430541465Q345.05496951911056 470.28489894698606 344.94459424441163 474.1480335614477Q344.8342189697127 478.0111681759092 344.44790550826656 480.60498713133336L344.44790550826656 480.60498713133336Q348.6145721281501 480.4118304006103 352.69845729200944 480.2186736698872Q356.75474863719404 479.9979231204894 360.9490090757523 479.80476638976637L360.9490090757523 479.80476638976637L360.9490090757523 488.55200690965427L314.2602678781171 488.55200690965427L314.2602678781171 481.98467806506966Q321.7933803763171 481.59836460362345 324.46998078776545 478.4250754560301Q327.1741750178885 475.2517863084367 327.4501132046358 469.78821021084104Q327.75364521005775 464.3246341132454 327.75364521005775 457.5641485379377L327.75364521005775 457.5641485379377L327.94680194078086 356.8191165565155L307.49978230280936 357.0398671059133Q294.97218862448403 357.0398671059133 289.8121445323104 365.37320034568035Q284.65210044013673 373.7065335854474 284.65210044013673 391.39417135594636L284.65210044013673 391.39417135594636L277.2845508539851 391.39417135594636L278.498678875673 349.47916078903853L394.3099358534953 349.47916078903853L395.4964700565085 391.39417135594636ZM447.56600589571514 488.55200690965427L407.03068626254367 488.55200690965427L407.03068626254367 482.5917420759136Q413.1841078270074 482.5917420759136 415.4743947770096 479.50123438434434Q417.7646817270118 476.43832051144983 418.15099518845796 470.97474441385424Q418.56490246857885 465.5111683162586 418.56490246857885 458.36436927950473L418.56490246857885 458.36436927950473L418.75805919930195 364.37982287339025Q418.75805919930195 361.2065337257968 418.8408406553261 358.3091827649506Q418.951215930025 355.4394256227792 419.33752939147115 351.4659157336188L419.33752939147115 351.4659157336188Q415.7779267824316 351.6590724643419 412.3011056294162 351.8522291950649Q408.8242844764008 352.0729797444627 405.23708804868653 352.2661364751858L405.23708804868653 352.2661364751858L405.23708804868653 343.905209416744Q413.9843285685744 343.905209416744 418.75805919930195 343.1325824938517Q423.53178983002937 342.33236175228467 426.0152335107547 341.1458275492715Q428.49867719148 339.93169952758353 429.87836812521624 338.5520085938473L429.87836812521624 338.5520085938473L435.6454762282338 338.5520085938473L435.6454762282338 432.5365549999618L443.59249600655477 432.5365549999618L467.8198688029636 407.09505418186507Q471.2139084999548 403.7286083035486 473.9732903674273 401.0244140734255Q476.76026605357464 398.3478136619771 479.54724173972187 396.55421544812L479.54724173972187 396.55421544812L466.02627058910645 397.1612794589639L466.02627058910645 389.214259680643L502.2017668716714 389.214259680643L502.2017668716714 395.1745245143837Q495.4412812963636 395.7815885252277 489.5913917373219 399.45156640896613Q483.71390835960534 403.1215442927046 478.8573962728537 407.702118192709Q473.9732903674273 412.2550982740387 470.41368775838777 416.03545143247607L470.41368775838777 416.03545143247607L454.90596166319216 432.31580445056403Q458.8794715523526 434.10940266442117 461.66644723849987 436.89637835056845Q464.4534229246471 439.6833540367157 467.24039861079433 443.0497999150322L467.24039861079433 443.0497999150322L481.340839953579 461.12375114697727Q482.3342174258691 462.3378791686652 484.8176611065944 465.7043250469817Q487.3011047873197 469.0707709252982 490.7779259403351 473.04428081445866Q494.25474709335043 477.0177907036191 498.117881707812 479.80476638976637Q502.0086101409483 482.5917420759136 505.3750560192648 482.5917420759136L505.3750560192648 482.5917420759136L505.3750560192648 488.55200690965427L487.3011047873197 488.55200690965427Q481.72715341502516 488.55200690965427 476.76026605357464 482.78489880663665Q471.793378692124 477.0177907036191 466.24702113850424 469.8709916668652L466.24702113850424 469.8709916668652Q461.05938322765587 462.72419263011136 457.0030918824712 456.87430307106956Q452.9192067186119 450.9968196933531 449.63554229631956 446.6369963427465Q446.379471692702 442.2495791734651 443.7856527372778 439.8765107674388L443.7856527372778 439.8765107674388L435.6454762282338 440.2628242288849L435.6454762282338 467.49792326083883Q435.6454762282338 471.4714331499993 435.53510095353494 474.53434702289377Q435.45231949751076 477.624854714463 434.84525548666676 480.9913005927795L434.84525548666676 480.9913005927795Q438.0185446342602 480.7981438620564 441.19183378185363 480.7153624060323Q444.39271674812176 480.60498713133336 447.56600589571514 480.4118304006103L447.56600589571514 480.4118304006103L447.56600589571514 488.55200690965427Z " fill="#4b075b" transform="matrix(0.5563887060873786,0,0,0.5563887060873786,0,69.9043482297467)"/><path d="M728.3204568884106 377.4378873042593L722.7769346903023 377.4378873042593Q722.6347930954789 368.80786190427386 721.01031772607 363.1221981113422Q719.4061482987785 357.416228376293 715.3855717594912 354.5530905377096Q711.3649952202038 351.71025864124374 703.7705728682166 351.85240023606707L703.7705728682166 351.85240023606707L691.3433362922375 351.85240023606707L691.2011946974143 431.53291710558005Q691.2011946974143 435.4925758185146 691.1199709289438 438.33540771498036Q691.0387471604732 441.17823961144614 690.7544639708267 443.0869981705018L690.7544639708267 443.0869981705018Q693.8206612305863 442.9448565756785 696.825940663993 442.80271498085517Q699.810914155282 442.6402674439143 702.8974173571593 442.498125849091L702.8974173571593 442.498125849091L702.8974173571593 448.93510950037427L668.5397632941582 448.93510950037427L668.5397632941582 444.10229527638245Q674.0832854922666 443.81801208673585 676.052961877675 441.48282874321035Q678.042944205201 439.1476453996849 678.2460036263772 435.1270688603975Q678.4693689896709 431.1064923211102 678.4693689896709 426.131536502295L678.4693689896709 426.131536502295L678.6115105844942 351.99454183089034L663.5648074753431 352.1569893678313Q654.3459097539468 352.1569893678313 650.5486985779531 358.28938388735037Q646.7514874019596 364.4217784068694 646.7514874019596 377.4378873042593L646.7514874019596 377.4378873042593L641.329800856557 377.4378873042593L642.2232623097319 346.5931612276053L727.4473013773533 346.5931612276053L728.3204568884106 377.4378873042593ZM799.9598206793488 448.93510950037427L779.0650062403251 448.93510950037427Q778.6182755137377 446.45778456202555 778.4761339189145 444.5490260029699Q778.3339923240911 442.6402674439143 778.029403192327 440.609673232153L778.029403192327 440.609673232153Q773.0747533156294 445.56432310885054 767.2875598121097 448.427460947434Q761.5206722507077 451.27029284389977 755.0836885994244 451.27029284389977L755.0836885994244 451.27029284389977Q743.9763382610901 451.27029284389977 738.5546517156874 446.23441919873176Q733.1532711124024 441.17823961144614 733.1532711124024 433.8681004491055L733.1532711124024 433.8681004491055Q733.1532711124024 427.14683360817565 737.315989246513 422.253101557831Q741.4787073806237 417.35936950748624 748.1390563952008 414.21194847925625Q754.7994054097778 411.06452745102627 762.6171931250587 409.54158179220525Q770.4349808403397 407.9983301912667 777.7451200026803 408.14047178608996L777.7451200026803 408.14047178608996L777.7451200026803 399.0840216016347Q777.7451200026803 393.9669241879962 776.871964491623 389.4386990957685Q775.9988089805656 384.89016806142325 773.0747533156294 381.966112396487Q770.1506976506931 379.0420567315507 763.7137139994098 378.89991513672743L763.7137139994098 378.89991513672743Q759.4697720968287 378.75777354190416 755.002464830954 380.50408456401885Q750.5554635071967 382.2707015282512 748.5045633533178 386.5146434308323L748.5045633533178 386.5146434308323Q749.6823079961393 387.6720821315362 750.0478149542564 389.2153337324748Q750.4133219123734 390.73827939129575 750.4133219123734 392.05816562894057L750.4133219123734 392.05816562894057Q750.4133219123734 393.8247825931729 748.9512940799053 396.07874216822796Q747.4892662474372 398.3530076854006 743.8341966662668 398.21086609057727L743.8341966662668 398.21086609057727Q740.7476934643896 398.21086609057727 739.1435240370982 396.07874216822796Q737.5393546098068 393.9669241879962 737.5393546098068 391.04286852305995L737.5393546098068 391.04286852305995Q737.5393546098068 386.0679127042448 741.2756479594476 382.1285599334279Q744.9916353669707 378.16890122049335 751.5707606130774 375.8337178769679Q758.1498858591839 373.4985345334424 766.4956280695228 373.4985345334424L766.4956280695228 373.4985345334424Q778.760417108561 373.4985345334424 784.6085284384335 379.9964360110785Q790.456639768306 386.5146434308323 790.3144981734828 400.54604943410277L790.3144981734828 400.54604943410277Q790.3144981734828 405.9474300373878 790.3144981734828 411.4300344091433Q790.3144981734828 416.91263878089876 790.2535803471299 422.39524315265425Q790.1723565786594 427.87784752440973 790.1723565786594 433.4416756646356L790.1723565786594 433.4416756646356Q790.1723565786594 435.7768590081611 790.0302149838361 438.1120423516866Q789.8880733890129 440.4472256952121 789.5834842572486 443.3712813601484L789.5834842572486 443.3712813601484Q792.2232567325383 443.2291397653251 794.7818054393575 443.0869981705018Q797.3403541461768 442.9448565756785 799.9598206793488 442.80271498085517L799.9598206793488 442.80271498085517L799.9598206793488 448.93510950037427ZM777.7451200026803 413.11542760490516L777.7451200026803 413.11542760490516Q772.7701641838652 413.25756919972844 767.2875598121097 414.3540900740795Q761.8049554403542 415.45061094843066 757.1955065796561 417.64365269713284Q752.6063636610755 419.836694445835 749.7432258224921 423.4308462006525Q746.9003939260264 427.0046920133524 747.0425355208497 432.1217894269908L747.0425355208497 432.1217894269908Q747.3268187104962 437.5231700302758 750.6163813335495 440.244166274036Q753.9059439566028 442.9448565756785 758.4544749909481 442.9448565756785L758.4544749909481 442.9448565756785Q764.444727915644 442.9448565756785 768.8917292394011 440.67059105850586Q773.359036505276 438.41663148345083 777.7451200026803 434.31483117569303L777.7451200026803 434.31483117569303Q777.602978407857 432.7106617484016 777.602978407857 430.801903189346Q777.602978407857 428.91345057240795 777.602978407857 426.8625504185291L777.602978407857 426.8625504185291Q777.602978407857 426.131536502295 777.6638962342099 422.1718777893605Q777.7451200026803 418.2325250185436 777.7451200026803 413.11542760490516ZM840.0234444773992 451.27029284389977L840.0234444773992 451.27029284389977Q832.7133053150584 451.27029284389977 827.0073355800092 449.30061645849133Q821.3216717870777 447.3309400730829 817.6666022059072 444.83330919261647L817.6666022059072 444.83330919261647L818.2351685852004 449.95040660625494L812.1027740656814 449.95040660625494L811.229618554624 424.81165026465015L815.7578436468517 424.81165026465015Q816.0421268364983 430.801903189346 819.1286300383754 435.5534936448674Q822.194827298135 440.3050841003888 827.0073355800092 442.9448565756785Q831.8401498040012 445.56432310885054 837.403977944227 445.56432310885054L837.403977944227 445.56432310885054Q841.2011891202206 445.56432310885054 844.856258701391 444.3256606396762Q848.5113282825613 443.0869981705018 850.98865322091 440.52844946368253Q853.4862841013764 437.9699007568633 853.4862841013764 434.03054798604643L853.4862841013764 434.03054798604643Q853.4862841013764 429.92874767828863 851.0698769893805 427.2280573766461Q848.6534698773845 424.5273670750036 844.7141171065676 422.4764669211247Q840.7544583936332 420.4255667672458 836.2262333014055 418.6792557451311L836.2262333014055 418.6792557451311Q831.8401498040012 416.91263878089876 827.4540663065967 415.0241861639608Q823.0679828091924 413.11542760490516 819.3316894595515 410.47565512961546Q815.6157020520284 407.8561885964434 813.4226603033262 404.0589774204498Q811.229618554624 400.24146030233857 811.229618554624 394.6979381042303L811.229618554624 394.6979381042303Q811.229618554624 391.6317408444707 812.3870572553279 387.9766712633004Q813.5648018981495 384.32160168213005 816.3467159682624 381.0320390590768Q819.1286300383754 377.7424764360235 823.9411383202497 375.6103525136742Q828.7739525442415 373.4985345334424 836.2262333014055 373.4985345334424L836.2262333014055 373.4985345334424Q840.1655860722224 373.4985345334424 844.9984002962143 374.81842077108723Q849.8312145202061 376.11800106661445 854.3594396124338 379.7730706477848L854.3594396124338 379.7730706477848L854.0548504806696 374.2295484496765L860.2075509423063 374.2295484496765L860.2075509423063 399.8150355178687L855.5168783131377 399.8150355178687Q855.2325951234911 394.6979381042303 853.1816949696123 389.94634764870887Q851.1307948157333 385.1947571931874 847.1914420449165 382.0473361649574Q843.2520892740996 378.89991513672743 836.9572472176395 378.89991513672743L836.9572472176395 378.89991513672743Q830.2359803767097 378.89991513672743 826.438769200716 382.2707015282512Q822.6212520826049 385.6211819776573 822.6212520826049 390.0072654750617L822.6212520826049 390.0072654750617Q822.6212520826049 394.55579650940695 825.4843899211883 397.54077000069606Q828.327221817654 400.54604943410277 832.8554469098817 402.739091182805Q837.403977944227 404.93213293150717 842.5210753578655 406.98303308538607L842.5210753578655 406.98303308538607Q848.0645975559738 409.3182164289115 853.3238365644355 412.1001304990245Q858.6033815150149 414.86173862701986 861.953861964421 419.0447627032481Q865.3246483559448 423.2074808373588 865.3246483559448 429.7866060834653L865.3246483559448 429.7866060834653Q865.3246483559448 437.09674524580595 861.588355006304 441.9092535276802Q857.8723675987809 446.7420677516721 852.0851740952611 449.01633326884473Q846.3182865338591 451.27029284389977 840.0234444773992 451.27029284389977ZM905.2258246170541 451.27029284389977L905.2258246170541 451.27029284389977Q901.875344167648 451.27029284389977 898.362416181301 450.31591356437195Q894.8494881949539 449.38184022696174 891.8645147036648 446.5999261568488Q888.8592352702582 443.81801208673585 887.1129242481434 438.47754930980363Q885.3463072839111 433.1370865328715 885.3463072839111 424.3649195380627L885.3463072839111 424.3649195380627L885.6508964156752 381.966112396487L874.3810985404001 382.1285599334279L874.3810985404001 375.8337178769679Q878.1783097163938 375.6915762821446 882.1379684293282 372.99088598050207Q886.0773212001451 370.26988973674196 889.2247422283751 365.599523049691Q892.3721632566052 360.92915636264 893.5296019573091 355.36532822241406L893.5296019573091 355.36532822241406L898.5045577761242 355.36532822241406L898.5045577761242 375.8337178769679L923.0747477384358 375.8337178769679L923.0747477384358 381.53968761201713L898.5045577761242 381.8239708016637L898.2202745864777 422.4764669211247Q898.2202745864777 429.0555921672313 899.3167954608288 433.6650410279294Q900.4133163351798 438.2541839465099 902.8906412735286 440.609673232153Q905.388272153995 442.9448565756785 909.3276249248119 442.9448565756785L909.3276249248119 442.9448565756785Q913.4294252325698 442.9448565756785 917.0032710452696 440.609673232153Q920.5771168579694 438.2541839465099 923.3590309280825 434.17268958086976L923.3590309280825 434.17268958086976L927.3186896410169 437.38102843545255Q924.0900448443165 442.2138426594444 920.9426238160864 444.9957567295574Q917.8155087299741 447.7573648575528 914.8914530650378 449.158474863668Q911.9673974001015 450.5392789276657 909.4697665196352 450.90478588578276Q906.9924415812865 451.27029284389977 905.2258246170541 451.27029284389977ZM945.8783207365151 488.552002571837L945.8783207365151 488.552002571837Q941.3500956442874 488.552002571837 938.121450847587 486.35896082313485Q934.9131119930041 484.1659190744327 934.9131119930041 479.637693982205L934.9131119930041 479.637693982205Q934.9131119930041 476.99792150691525 936.6594230151189 474.8048797582131Q938.4260399793511 472.6118380095109 941.2079540494641 472.6118380095109L941.2079540494641 472.6118380095109Q944.7005760936935 472.46969641468763 945.9595445049855 474.8048797582131Q947.1982069741599 477.1603690438562 947.1982069741599 478.90668006597093L947.1982069741599 478.90668006597093Q947.1982069741599 479.3534107925584 947.1982069741599 479.86105934549875Q947.1982069741599 480.368707898439 947.0560653793366 480.95758021984983L947.0560653793366 480.95758021984983Q947.4824901638065 481.2418634094964 948.6602348066281 481.2418634094964L948.6602348066281 481.2418634094964Q950.4065458287428 481.2418634094964 952.4574459826217 479.7798355770283Q954.5083461365006 478.3178077445602 956.112515563792 475.5358936744472L956.112515563792 475.5358936744472Q958.0212741228476 472.32755481986436 960.5798228296668 465.89057116858106Q963.138371536486 459.45358751729776 966.3467103910689 450.5392789276657L966.3467103910689 450.5392789276657L943.5431373929897 401.7034881348067Q939.745926216996 393.5201934614087 938.0605330212342 388.70768517953445Q936.3751398254723 383.8748709555426 935.7862675040616 381.53968761201713L935.7862675040616 381.53968761201713L928.780717473485 381.8239708016637L928.780717473485 375.8337178769679L959.0365712287282 375.8337178769679L959.0365712287282 380.21980137437225L958.4476989073174 380.21980137437225Q952.3153043877984 380.6665321009597 951.7264320663876 384.8292502350704Q951.1375597449768 388.99196836918105 955.0972184579114 397.47985217434325L955.0972184579114 397.47985217434325L972.1948217209414 434.17268958086976Q975.5656081124652 424.81165026465015 978.6318053722247 415.6739763117244Q981.6980026319842 406.5363023587986 984.7641998917438 397.47985217434325L984.7641998917438 397.47985217434325Q985.9419445345653 394.2512073776428 987.1806070037397 390.8195031597662Q988.4192694729142 387.3877989418896 989.6579319420886 384.6871086402471Q990.9169003533806 381.966112396487 991.9321974592611 381.23509848025293L991.9321974592611 381.23509848025293L981.8401442268076 381.8239708016637L981.8401442268076 375.8337178769679L1004.8061647618277 375.8337178769679L1004.8061647618277 380.21980137437225Q999.384478216425 382.2707015282512 996.6837879147826 387.0222919837726Q993.9830976131401 391.773882439294 991.201183543027 399.22616319645795L991.201183543027 399.22616319645795L972.9258356371755 450.25499573801915Q968.5397521397712 462.54009071917494 964.8846825586007 471.08889235068995Q961.2296129774305 479.637693982205 956.8435294800261 484.10500124807976Q952.4574459826217 488.552002571837 945.8783207365151 488.552002571837ZM1084.7709648209875 448.93510950037427L1051.8753385904542 448.93510950037427L1051.8753385904542 444.10229527638245Q1057.4391667306804 443.81801208673585 1059.4697609424416 441.5437465695632Q1061.5206610963205 439.2897869945082 1061.7440264596144 435.2692104552208Q1061.9673918229082 431.24863391593345 1061.9673918229082 426.131536502295L1061.9673918229082 426.131536502295L1061.9673918229082 362.9597505744013Q1061.9673918229082 360.03569490946506 1062.1095334177312 357.33500460782255Q1062.2516750125546 354.63431430618004 1062.393816607378 352.4412725574778L1062.393816607378 352.4412725574778Q1059.7743500742058 352.5834141523011 1057.1345775989162 352.7255557471244Q1054.515111065744 352.88800328406535 1051.8753385904542 353.0301448788886L1051.8753385904542 353.0301448788886L1051.8753385904542 346.5931612276053L1084.7709648209875 346.5931612276053L1084.7709648209875 351.4259754515972Q1079.3695842177021 351.56811704642047 1077.2374602953528 353.90330038994597Q1075.1256423151212 356.2384837334714 1074.9022769518274 360.19814244640594Q1074.6789115885335 364.13749521722286 1074.6789115885335 369.39673422568455L1074.6789115885335 369.39673422568455L1074.6789115885335 393.3780518665854L1085.6441203320446 393.3780518665854L1103.9194682378961 364.58422594381034Q1105.828226796952 361.6601702788741 1108.6101408670647 358.14724229252704Q1111.37174899506 354.63431430618004 1114.2958046599965 352.29913096265454L1114.2958046599965 352.29913096265454Q1112.1027629112941 352.4412725574778 1109.8488033362391 352.4412725574778Q1107.5745378190668 352.4412725574778 1105.3814960703644 352.5834141523011L1105.3814960703644 352.5834141523011L1105.3814960703644 346.5931612276053L1136.815094468429 346.5931612276053L1136.815094468429 351.4259754515972Q1130.6826999489099 351.85240023606707 1125.8498857249183 353.45656966335844Q1121.037377443044 355.0810450327675 1116.6512939456397 359.10162157205485Q1112.2652104482354 363.1221981113422 1107.29025462942 371.1633511899169L1107.29025462942 371.1633511899169L1092.9542594943855 393.9669241879962Q1097.1982013969664 396.44424912634497 1099.837973872256 399.7338117493983Q1102.4574404054283 403.02337437245154 1105.097212880718 406.39416076397526L1105.097212880718 406.39416076397526L1121.463802227514 428.18243665617393Q1127.0276303677397 435.4925758185146 1130.6014761804395 438.92428003639117Q1134.195627935257 442.3559842542677 1137.0384598317228 443.2291397653251Q1139.8812917281884 444.10229527638245 1142.9677949300658 444.10229527638245L1142.9677949300658 444.10229527638245L1142.9677949300658 448.93510950037427L1125.1188718086842 448.93510950037427Q1123.656843976216 448.93510950037427 1121.24043686422 446.8842093464954Q1118.8443356943417 444.83330919261647 1116.0624216242286 441.5437465695632Q1113.280507554116 438.2541839465099 1110.3564518891794 434.5991143653396L1110.3564518891794 434.5991143653396L1092.812117899562 410.922385856203Q1090.030203829449 407.26731627503267 1087.2482897593363 403.97775365197936Q1084.4866816313406 400.68819102892604 1081.846909156051 399.0840216016347L1081.846909156051 399.0840216016347L1074.6789115885335 399.22616319645795L1074.6789115885335 431.53291710558005Q1074.6789115885335 435.4925758185146 1074.617993762181 438.33540771498036Q1074.5367699937105 441.17823961144614 1074.2524868040637 443.0869981705018L1074.2524868040637 443.0869981705018Q1076.871953337236 442.9448565756785 1079.5117258125256 442.80271498085517Q1082.1311923456974 442.6402674439143 1084.7709648209875 442.498125849091L1084.7709648209875 442.498125849091L1084.7709648209875 448.93510950037427ZM1150.1154865554654 448.93510950037427L1150.1154865554654 444.5490260029699Q1154.664017589811 444.5490260029699 1156.4103286119257 442.27476048579723Q1158.1566396340404 440.02080091074225 1158.4612287658047 436.00022437145486Q1158.745511955451 431.97964783216753 1158.745511955451 426.7204088237058L1158.745511955451 426.7204088237058L1158.745511955451 393.3780518665854Q1158.745511955451 391.04286852305995 1158.8876535502745 388.9107446007106Q1159.0501010872154 386.7989266204788 1159.3343842768618 383.8748709555426L1159.3343842768618 383.8748709555426Q1156.6946118015721 384.0170125503659 1154.136063094753 384.1591541451892Q1151.5775143879337 384.32160168213005 1148.9580478547618 384.4637432769534L1148.9580478547618 384.4637432769534L1148.9580478547618 378.3110428153167Q1155.3950315060451 378.3110428153167 1158.8876535502745 377.7424764360235Q1162.4005815366213 377.15360411461273 1164.2281163272064 376.2804486035554Q1166.055651117792 375.3869871503804 1167.09125416579 374.37169004449976L1167.09125416579 374.37169004449976L1171.3148901262534 374.37169004449976L1171.3148901262534 433.4416756646356Q1171.3148901262534 436.36573132957193 1171.2539722999009 438.61969090462696Q1171.17274853143 440.8939564217996 1170.7463237469606 443.3712813601484L1170.7463237469606 443.3712813601484Q1173.081507090486 443.2291397653251 1175.335466665541 443.16822193897224Q1177.6097321827133 443.0869981705018 1179.9449155262391 442.9448565756785L1179.9449155262391 442.9448565756785L1179.9449155262391 448.93510950037427L1150.1154865554654 448.93510950037427ZM1164.3093400956768 359.89355331464174L1164.3093400956768 359.89355331464174Q1161.2431428359173 359.89355331464174 1158.8876535502745 357.416228376293Q1156.5524702067487 354.9185974958266 1156.5524702067487 351.26352791465627L1156.5524702067487 351.26352791465627Q1156.5524702067487 347.60845833348594 1158.968877318745 345.04990962666676Q1161.3852844307407 342.4913609198475 1164.4514816905003 342.4913609198475L1164.4514816905003 342.4913609198475Q1167.822268082024 342.4913609198475 1170.076227657079 345.04990962666676Q1172.3504931742518 347.60845833348594 1172.3504931742518 351.26352791465627L1172.3504931742518 351.26352791465627Q1172.3504931742518 354.9185974958266 1169.9340860622556 357.416228376293Q1167.5176789502598 359.89355331464174 1164.3093400956768 359.89355331464174ZM1221.02383643017 451.27029284389977L1221.02383643017 451.27029284389977Q1217.673355980764 451.27029284389977 1214.1604279944168 450.31591356437195Q1210.6475000080695 449.38184022696174 1207.6625265167804 446.5999261568488Q1204.657247083374 443.81801208673585 1202.9109360612592 438.47754930980363Q1201.1443190970267 433.1370865328715 1201.1443190970267 424.3649195380627L1201.1443190970267 424.3649195380627L1201.448908228791 381.966112396487L1190.179110353516 382.1285599334279L1190.179110353516 375.8337178769679Q1193.9763215295097 375.6915762821446 1197.9359802424442 372.99088598050207Q1201.8753330132608 370.26988973674196 1205.0227540414908 365.599523049691Q1208.1701750697207 360.92915636264 1209.3276137704247 355.36532822241406L1209.3276137704247 355.36532822241406L1214.3025695892397 355.36532822241406L1214.3025695892397 375.8337178769679L1238.8727595515516 375.8337178769679L1238.8727595515516 381.53968761201713L1214.3025695892397 381.8239708016637L1214.0182863995933 422.4764669211247Q1214.0182863995933 429.0555921672313 1215.1148072739443 433.6650410279294Q1216.2113281482957 438.2541839465099 1218.6886530866445 440.609673232153Q1221.1862839671107 442.9448565756785 1225.1256367379278 442.9448565756785L1225.1256367379278 442.9448565756785Q1229.2274370456853 442.9448565756785 1232.8012828583855 440.609673232153Q1236.3751286710853 438.2541839465099 1239.157042741198 434.17268958086976L1239.157042741198 434.17268958086976L1243.1167014541325 437.38102843545255Q1239.8880566574321 442.2138426594444 1236.7406356292022 444.9957567295574Q1233.6135205430896 447.7573648575528 1230.6894648781536 449.158474863668Q1227.7654092132175 450.5392789276657 1225.2677783327508 450.90478588578276Q1222.790453394402 451.27029284389977 1221.02383643017 451.27029284389977ZM1285.799791785355 451.27029284389977L1285.799791785355 451.27029284389977Q1276.0123276846653 451.27029284389977 1267.7478092427968 446.82329152014256Q1259.4832908009284 442.3559842542677 1254.5895587505838 433.94932421757596Q1249.6958267002392 425.5426641808843 1249.6958267002392 413.7042999263159L1249.6958267002392 413.7042999263159Q1249.6958267002392 406.08957163221106 1252.4574348282345 398.94188000681135Q1255.2393488983475 391.773882439294 1260.295528485633 385.98668893577434Q1265.331402130801 380.21980137437225 1272.357258103495 376.84901498284853Q1279.3628081340717 373.4985345334424 1287.850691939234 373.4985345334424L1287.850691939234 373.4985345334424Q1296.033986612632 373.4985345334424 1302.105463305798 375.9758594717912Q1308.1769399989644 378.47349035225756 1311.5274204483703 382.55498471789775Q1314.898206839894 386.65678502565555 1314.898206839894 391.4692933075298L1314.898206839894 391.4692933075298Q1314.898206839894 394.6979381042303 1313.131589875662 396.9518976792853Q1311.3852788535469 399.22616319645795 1308.014492462023 399.22616319645795L1308.014492462023 399.22616319645795Q1304.359422880853 399.3683047912812 1302.836477222032 396.9518976792853Q1301.2932256210934 394.55579650940695 1301.2932256210934 392.6470379503514L1301.2932256210934 392.6470379503514Q1301.2932256210934 391.1850101178832 1301.739956347681 389.64175851694466Q1302.166381132151 388.1188128581237 1303.4862673697958 386.7989266204788L1303.4862673697958 386.7989266204788Q1302.3288286690918 383.28599863413183 1299.4047730041557 381.60060543836994Q1296.4807173392192 379.9355181847257 1293.3332963109892 379.40756368966777Q1290.1858752827593 378.89991513672743 1288.1349751288803 378.89991513672743L1288.1349751288803 378.89991513672743Q1278.2053694333677 378.89991513672743 1271.4028788239675 386.8801503889493Q1264.600388214567 394.84007969905355 1264.600388214567 410.0492303451456L1264.600388214567 410.0492303451456Q1264.600388214567 419.836694445835 1267.7478092427968 427.45142273993986Q1270.8952302710268 435.04584509192705 1276.5808940639586 439.35070482086104Q1282.2868637990077 443.6758704919126 1289.7391445561716 443.6758704919126L1289.7391445561716 443.6758704919126Q1296.6228589340426 443.6758704919126 1302.897395048385 440.02080091074225Q1309.192237104845 436.36573132957193 1312.7051650911922 431.1064923211102L1312.7051650911922 431.1064923211102L1316.5023762671854 434.03054798604643Q1312.7051650911922 440.1629425055655 1307.3647023142598 443.9601536815591Q1302.0242395373275 447.7573648575528 1296.3994935707487 449.52398182178507Q1290.77474760417 451.27029284389977 1285.799791785355 451.27029284389977ZM1374.8413479710875 448.93510950037427L1374.8413479710875 444.5490260029699Q1379.3695730633149 444.5490260029699 1381.1158840854296 442.27476048579723Q1382.882501049662 440.02080091074225 1383.1667842393085 436.00022437145486Q1383.4713733710728 431.97964783216753 1383.4713733710728 426.7204088237058L1383.4713733710728 426.7204088237058L1383.4713733710728 406.252019169152Q1383.4713733710728 393.662335056232 1379.4507968317853 387.3877989418896Q1375.4302202924982 381.0929568854296 1366.8001948925125 381.23509848025293L1366.8001948925125 381.23509848025293Q1361.3785083471103 381.3975460171938 1356.2004931071187 383.8748709555426Q1351.0021719250099 386.35219589389135 1347.793833070427 390.3118546068259L1347.793833070427 390.3118546068259L1347.793833070427 433.4416756646356Q1347.793833070427 436.36573132957193 1347.651691475604 438.61969090462696Q1347.4892439386626 440.8939564217996 1347.0628191541928 443.3712813601484L1347.0628191541928 443.3712813601484Q1349.3980024977186 443.2291397653251 1351.672268014891 443.16822193897224Q1353.926227589946 443.0869981705018 1356.2614109334718 442.9448565756785L1356.2614109334718 442.9448565756785L1356.2614109334718 448.93510950037427L1326.4522879048159 448.93510950037427L1326.4522879048159 444.5490260029699Q1330.9805129970437 444.5490260029699 1332.7268240191584 442.27476048579723Q1334.4934409833904 440.02080091074225 1334.8589479415077 436.00022437145486Q1335.2244548996246 431.97964783216753 1335.2244548996246 426.7204088237058L1335.2244548996246 426.7204088237058L1335.2244548996246 357.5583699711163Q1335.2244548996246 355.2231866275908 1335.2853727259776 353.0910627052414Q1335.366596494448 350.9792447250097 1335.6508796840944 348.0551890600734L1335.6508796840944 348.0551890600734Q1333.0314131509226 348.19733065489675 1330.4728644441034 348.33947224972Q1327.9143157372841 348.50191978666095 1325.2745432619945 348.6440613814842L1325.2745432619945 348.6440613814842L1325.2745432619945 342.4913609198475Q1331.7115269132778 342.4913609198475 1335.2853727259776 341.9227945405544Q1338.8795244807948 341.3339222191436 1340.7070592713803 340.4607667080862Q1342.5345940619654 339.5673052549113 1343.549891167846 338.5520081490306L1343.549891167846 338.5520081490306L1347.793833070427 338.5520081490306L1347.793833070427 383.14385703930856Q1351.0021719250099 380.3619429691956 1355.0227484642974 378.2501249889638Q1359.0433250035844 376.11800106661445 1363.3684906746362 374.81842077108723Q1367.67335040357 373.4985345334424 1371.775150711328 373.4985345334424L1371.775150711328 373.4985345334424Q1384.4866704769533 373.4985345334424 1390.111416443532 381.45846384354667Q1395.7361624101113 389.4386990957685 1395.8986099470521 406.252019169152L1395.8986099470521 406.252019169152L1396.0407515418751 433.4416756646356Q1396.0407515418751 436.36573132957193 1395.9595277734047 438.61969090462696Q1395.8986099470521 440.8939564217996 1395.4518792204644 443.3712813601484L1395.4518792204644 443.3712813601484Q1397.7870625639898 443.2291397653251 1400.0613280811626 443.16822193897224Q1402.3152876562176 443.0869981705018 1404.6707769418608 442.9448565756785L1404.6707769418608 442.9448565756785L1404.6707769418608 448.93510950037427L1374.8413479710875 448.93510950037427ZM1450.86679525943 451.27029284389977L1450.86679525943 451.27029284389977Q1440.7747420269766 451.27029284389977 1432.6523651799312 446.51870238837836Q1424.5502942750036 441.76711193285695 1419.8596216458354 433.0761687065186Q1415.1892549587842 424.3649195380627 1415.1892549587842 412.52655528349436L1415.1892549587842 412.52655528349436Q1415.1892549587842 402.29236045621747 1419.7987038194824 393.3780518665854Q1424.4081526801806 384.4637432769534 1432.7335889484016 378.9811389051979Q1441.059025216623 373.4985345334424 1452.024233960134 373.4985345334424L1452.024233960134 373.4985345334424Q1458.176934421771 373.4985345334424 1463.5173971987028 375.46821091885084Q1468.8375540335173 377.4378873042593 1472.9393543412752 381.45846384354667Q1477.0411546490332 385.479040382834 1479.3763379925585 391.55051707600023Q1481.711521336084 397.6219937691665 1481.711521336084 405.8052884425645L1481.711521336084 405.8052884425645L1430.2562640100532 406.67844395362187Q1430.2562640100532 417.7857942919561 1432.6523651799312 426.19245432864784Q1435.0687722919274 434.5991143653396 1440.4904588373297 439.2085632260377Q1445.891839440615 443.81801208673585 1454.3797232457769 443.81801208673585L1454.3797232457769 443.81801208673585Q1458.9079483380046 443.81801208673585 1463.6595387935263 442.2138426594444Q1468.4111292490475 440.609673232153 1472.492623614688 437.82775916204Q1476.5944239224455 435.04584509192705 1479.0717488607943 431.6750587004033L1479.0717488607943 431.6750587004033L1482.5846768471415 434.5991143653396Q1478.6453240763244 440.7518148269763 1473.0814959360987 444.4068844081466Q1467.5379737379903 448.0619539893169 1461.6898624081177 449.66612341660834Q1455.8417510782451 451.27029284389977 1450.86679525943 451.27029284389977ZM1430.6826887945226 400.54604943410277L1430.6826887945226 400.54604943410277L1467.9643985224602 400.54604943410277Q1467.9643985224602 395.286810425641 1466.4414528636394 390.37277243317874Q1464.8982012627007 385.479040382834 1461.3852732763535 382.331619354604Q1457.8723452900067 379.20450426849163 1452.186681497075 379.20450426849163L1452.186681497075 379.20450426849163Q1443.6987976919127 379.20450426849163 1438.074051725334 384.24037791365964Q1432.4493057587551 389.2762515588276 1430.6826887945226 400.54604943410277ZM1524.5570592042473 448.93510950037427L1494.727630233474 448.93510950037427L1494.727630233474 444.5490260029699Q1499.2558553257018 444.5490260029699 1501.0021663478165 442.27476048579723Q1502.7687833120485 440.02080091074225 1503.0530665016954 436.00022437145486Q1503.3576556334592 431.97964783216753 1503.3576556334592 426.7204088237058L1503.3576556334592 426.7204088237058L1503.4997972282827 393.3780518665854Q1503.4997972282827 391.04286852305995 1503.5607150546357 388.70768517953445Q1503.641938823106 386.35219589389135 1504.0886695496933 383.8748709555426L1504.0886695496933 383.8748709555426Q1501.4488970744037 384.0170125503659 1498.8903483675845 384.1591541451892Q1496.3317996607652 384.32160168213005 1493.6920271854756 384.4637432769534L1493.6920271854756 384.4637432769534L1493.6920271854756 378.3110428153167Q1500.1290108367589 378.3110428153167 1503.4185734598123 377.7424764360235Q1506.7081360828656 377.15360411461273 1508.3123055101569 376.2804486035554Q1509.936780879566 375.3869871503804 1510.9520779854465 374.37169004449976L1510.9520779854465 374.37169004449976L1515.1960198880279 374.37169004449976Q1515.3381614828509 375.3869871503804 1515.4193852513213 376.70687338802526Q1515.4803030776743 378.0267596256701 1515.6224446724977 379.6309290529615Q1515.7848922094386 381.23509848025293 1515.7848922094386 383.28599863413183L1515.7848922094386 383.28599863413183Q1518.9932310640215 380.50408456401885 1522.8716660084856 378.3110428153167Q1526.7501009529497 376.11800106661445 1531.0549606818831 374.81842077108723Q1535.3598204108175 373.4985345334424 1539.6037623133984 373.4985345334424L1539.6037623133984 373.4985345334424Q1552.3355880211416 373.4985345334424 1558.1836993510142 381.45846384354667Q1564.0318106808868 389.4386990957685 1564.0318106808868 406.252019169152L1564.0318106808868 406.252019169152L1564.0318106808868 433.4416756646356Q1564.0318106808868 436.36573132957193 1563.9505869124164 438.61969090462696Q1563.8693631439455 440.8939564217996 1563.442938359476 443.3712813601484L1563.442938359476 443.3712813601484Q1565.7781217030015 443.2291397653251 1568.0523872201738 443.16822193897224Q1570.3063467952293 443.0869981705018 1572.6415301387547 442.9448565756785L1572.6415301387547 442.9448565756785L1572.6415301387547 448.93510950037427L1542.8324071100988 448.93510950037427L1542.8324071100988 444.5490260029699Q1547.3606322023265 444.5490260029699 1549.1069432244412 442.27476048579723Q1550.8735601886738 440.02080091074225 1551.1578433783202 436.00022437145486Q1551.4421265679666 431.97964783216753 1551.4421265679666 426.7204088237058L1551.4421265679666 426.7204088237058L1551.4421265679666 406.252019169152Q1551.2999849731432 393.662335056232 1547.2794084338561 387.24565734706636Q1543.2588318945686 380.80867369578306 1534.6288064945834 380.95081529060633L1534.6288064945834 380.95081529060633Q1529.3695674861215 381.0929568854296 1524.3336938409534 383.7327293607193Q1519.277514253668 386.35219589389135 1515.9270338042616 390.45399620164915L1515.9270338042616 390.45399620164915Q1516.069175399085 391.6317408444707 1516.069175399085 393.09376867693885Q1516.069175399085 394.55579650940695 1516.069175399085 396.15996593669837L1516.069175399085 396.15996593669837L1515.9270338042616 433.4416756646356Q1515.9270338042616 436.36573132957193 1515.8458100357911 438.61969090462696Q1515.7848922094386 440.8939564217996 1515.3381614828509 443.3712813601484L1515.3381614828509 443.3712813601484Q1517.6733448263763 443.2291397653251 1519.947610343549 443.16822193897224Q1522.201569918604 443.0869981705018 1524.5570592042473 442.9448565756785L1524.5570592042473 442.9448565756785L1524.5570592042473 448.93510950037427Z " fill="#fcedda" transform="matrix(0.5563887060873786,0,0,0.5563887060873786,0,69.9043482297467)"/></g></svg>